<svg xmlns="http://www.w3.org/2000/svg" viewBox="0 0 277.4 76.44"><path d="M47.86,10.23h-1.87l6.89-7.48c.5-.54,.94-.96,1.38-1.49,.5-.36,.88-.95,1.49-1.08,.88-.24,1.93,.31,2.2,1.26,.16,.42,.28,1.26-.05,1.61-.28,.66-.88,.96-1.38,1.32l-8.66,5.86Z"/><path d="M205.86,20.58l-5.85,15.3h11.75l-5.9-15.3Zm18.29,33.96h-5.55l-5.9-16.14h-13.59l-6.12,16.14h-3.82l17.19-41.79h1.27l16.52,41.79Z"/><path d="M115.78,20.58l-5.86,15.3h11.75l-5.89-15.3Zm18.28,33.96h-5.55l-5.9-16.14h-13.59l-6.12,16.14h-3.83L116.27,12.74h1.28l16.52,41.79Z"/><path d="M123.58,66.24l-1.76,4.59h3.53l-1.77-4.59Zm5.49,10.19h-1.67l-1.77-4.85h-4.08l-1.84,4.85h-1.15l5.16-12.55h.38l4.96,12.55Z"/><path d="M277.4,51.55s-.05,2.22,0,2.81h-19.9V13.64h19.56v2.81h-14.71v15.01h13.45v2.63h-13.45v17.46h15.04Z"/><path d="M60.99,51.55s-.06,2.22,0,2.81h-19.9V13.64h19.56v2.81h-14.71v15.01h13.45v2.63h-13.45v17.46h15.05Z"/><path d="M236.78,55.33c-3.33,0-6.27-.72-8.77-2.15v-5.19c1.32,1.55,4.64,5.13,9.71,5.13,6.14,0,8.9-4.17,8.9-8.3,0-5.06-3.36-6.95-7.25-8.58-6.14-2.66-7.73-3.29-9.22-4.66-1.75-1.49-2.84-4.29-2.84-7.31,0-7.93,6.38-11.48,12.69-11.48,3.7,0,6.79,1.22,8.09,1.82v4.94c-1.17-1.4-4.41-4.73-8.79-4.73-7.51,0-7.73,6.47-7.73,7.21,0,5.01,4.06,6.72,6.84,7.86,5.98,2.39,7.62,2.98,9.58,4.67,2.63,2.19,3.18,5.31,3.18,7.55,0,6.58-4.45,13.22-14.39,13.22"/><path d="M162.53,76.44c-1,0-1.88-.22-2.63-.64v-1.56c.39,.47,1.39,1.54,2.91,1.54,1.84,0,2.67-1.25,2.67-2.49,0-1.52-1.01-2.09-2.18-2.58-1.84-.8-2.32-.99-2.77-1.4-.53-.45-.85-1.29-.85-2.19,0-2.38,1.91-3.45,3.81-3.45,1.11,0,2.04,.37,2.43,.55v1.48c-.35-.42-1.32-1.42-2.64-1.42-2.26,0-2.32,1.94-2.32,2.16,0,1.5,1.22,2.02,2.05,2.36,1.8,.72,2.29,.89,2.88,1.4,.79,.66,.96,1.59,.96,2.27,0,1.97-1.34,3.97-4.32,3.97"/><path d="M146.41,55.51c-3.33,0-6.28-.72-8.77-2.15v-5.19c1.32,1.55,4.64,5.13,9.7,5.13,6.15,0,8.89-4.17,8.89-8.3,0-5.07-3.35-6.95-7.24-8.58-6.15-2.66-7.74-3.29-9.23-4.66-1.75-1.5-2.84-4.29-2.84-7.31,0-7.93,6.38-11.48,12.69-11.48,3.7,0,6.79,1.22,8.09,1.82v4.94c-1.17-1.4-4.4-4.73-8.79-4.73-7.51,0-7.73,6.47-7.73,7.2,0,5.01,4.05,6.73,6.83,7.86,5.99,2.39,7.62,2.98,9.59,4.66,2.62,2.19,3.17,5.32,3.17,7.55,0,6.58-4.45,13.22-14.39,13.22"/><polygon points="191.52 13.64 163.09 13.64 163.09 16.27 175.16 16.27 175.16 54.66 180.01 54.66 180.01 16.27 191.52 16.27 191.52 13.64"/><path d="M77.52,32.44c-1.31,.06-2.18,.06-3.19-.05V15.85h4.54c4.27,0,10.02,.67,10.02,7.75,0,8.4-8.74,8.72-11.37,8.84m4.59,1.65c5.56-1.07,11.68-4.17,11.68-11.11,0-6.04-4.85-9.34-12.68-9.34h-11.63V54.54h4.85v-19.97h2.1l4.41,5.62,6.49,9.15c1.16,1.67,2.26,3.35,3.48,5.2,.99-.06,6.34,0,6.34,0l-15.04-20.45Z"/><path d="M109.6,69.8c-.39,.02-.65,.02-.96-.01v-4.97h1.36c1.28,0,3.01,.2,3.01,2.33,0,2.52-2.62,2.62-3.41,2.65m1.38,.5c1.67-.32,3.51-1.25,3.51-3.34,0-1.81-1.46-2.8-3.81-2.8h-3.49v12.28h1.46v-6h.63c.73-.01,1.71-.14,1.71-.14"/><path d="M138.74,69.8c-.39,.02-.65,.02-.96-.01v-4.97h1.36c1.28,0,3.01,.2,3.01,2.32,0,2.52-2.62,2.62-3.41,2.66m1.38,.49c1.67-.32,3.51-1.25,3.51-3.34,0-1.81-1.46-2.8-3.81-2.8h-3.49v12.28h1.45v-5.99h.63l1.32,1.69,1.95,2.75c.35,.5,.68,1.01,1.05,1.56,.3-.02,1.9,0,1.9,0l-4.52-6.14Z"/><path d="M11.17,24.48L35.76,0h-6.16L7,24.77s-.61,.71-1.05,.71V0H0V54.6H5.95V26.75c.41,.07,.83,.62,.83,.62l21.69,27.22h7.87L11.17,24.48Z"/><rect x="151.41" y="64.12" width="1.46" height="12.31"/></svg>