<svg xmlns="http://www.w3.org/2000/svg"><style type="text/css">.c{fill:#fff;}</style><polygon class="c" points="111,34 112,34 112,35 113,35 113,36 112,36 112,35 111,35 111,38 115,38 115,36 116,36 116,34 115,34 115,33 113,33 113,32 115,32 115,30 111,30"/><rect x="96" y="30" class="c" width="2" height="8"/><path class="c" d="M78,30v8h2v-3h1v2h1v1h2v-2h-1v-3h1v-2h-1v-1H78z M80,33v-2h1v2H80z"/><polygon class="c" points="66,33 65,33 65,31 64,31 64,30 63,30 63,31 62,31 62,33 61,33 61,35 60,35 60,38 62,38 62,35 64,35 64,36 65,36 65,38 67,38 67,36 66,36"/><path class="c" d="M45,30v8h2v-3h2v-1h1v-1h1v-2h-1v-1H45z M47,31h1v2h-1V31z"/><polygon class="c" points="142,27 154,27 154,24 146,24 146,17 153,17 153,14 146,14 146,8 154,8 154,5 142,5"/><polygon class="c" points="129,5 129,6 128,6 128,7 127,7 127,8 126,8 126,14 127,14 127,15 128,15 128,16 129,16 129,17 132,17 132,18 134,18 134,19 135,19 135,23 134,23 134,24 133,24 133,25 130,25 130,24 129,24 129,23 128,23 128,22 126,22 126,26 127,26 127,27 135,27 135,26 137,26 137,25 138,25 138,23 139,23 139,17 138,17 138,16 137,16 137,15 135,15 135,14 132,14 132,13 131,13 131,12 130,12 130,8 131,8 131,7 134,7 134,8 135,8 135,9 136,9 136,10 137,10 137,9 138,9 138,6 137,6 137,5"/><path class="c" d="M105,27h3v-3h1v-2h1v-3h8v3h1v2h1v3h5v-1h-1v-3h-1v-2h-1v-2h-1v-3h-1v-2h-1v-2h-1V9h-1V7h-1V5h-2v1h-1 v2h-1v2h-1v2h-1v3h-1v2h-1v2h-1v2h-1v3h-1V27z M112,14h1v-2h2v2h1v3h-4V14z"/><polygon class="c" points="106,5 89,5 89,8 96,8 96,27 100,27 100,8 106,8"/><polygon class="c" points="78,5 78,6 77,6 77,7 76,7 76,8 75,8 75,14 76,14 76,15 77,15 77,16 78,16 78,17 81,17 81,18 83,18 83,19 84,19 84,23 83,23 83,24 82,24 82,25 79,25 79,24 78,24 78,23 77,23 77,22 75,22 75,26 76,26 76,27 84,27 84,26 86,26 86,25 87,25 87,23 88,23 88,17 87,17 87,16 86,16 86,15 84,15 84,14 81,14 81,13 80,13 80,12 79,12 79,8 80,8 80,7 83,7 83,8 84,8 84,9 85,9 85,10 86,10 86,9 87,9 87,6 86,6 86,5"/><path class="c" d="M57,24h1v-2h1v-3h8v3h1v3h1v2h5v-1h-1v-2h-1v-3h-1v-2h-1v-2h-1v-3h-1v-2h-1V9h-1V7h-1V5h-2v1h-1v2h-1 v2h-1v2h-1v3h-1v2h-1v2h-1v2h-1v3h-1v2h-1v1h4V24z M61,14h1v-2h2v3h1v2h-4V14z"/><path class="c" d="M52,25v-1h-1v-1h-1v-1h-1v-2h-1v-1h-1v-1h-1v-1h-1v-1h3v-1h1v-1h1v-1h1V8h-1V7h-1V6h-2V5H37v22h4v-9h1 v1h1v1h1v2h1v1h1v1h1v2h1v1h5v-2H52z M44,14v1h-3V7h3v1h2v1h1v4h-1v1H44z"/><polygon class="c" points="22,27 34,27 34,24 26,24 26,17 33,17 33,14 26,14 26,8 34,8 34,5 22,5"/><polygon class="c" points="32,0 29,0 29,1 28,1 28,2 27,2 27,3 26,3 26,4 29,4 29,3 30,3 30,2 32,2"/><polygon class="c" points="15,0 15,1 14,1 14,2 13,2 13,3 12,3 12,4 11,4 11,5 10,5 10,6 9,6 9,7 8,7 8,8 7,8 7,10 5,10 5,11 4,11 4,0 0,0 0,27 4,27 4,15 5,15 5,16 6,16 6,17 7,17 7,18 8,18 8,19 9,19 9,21 10,21 10,22 11,22 11,23 12,23 12,24 13,24 13,25 14,25 14,27 20,27 20,25 19,25 19,24 18,24 18,23 17,23 17,22 16,22 16,21 15,21 15,19 14,19 14,18 13,18 13,17 12,17 12,16 11,16 11,15 10,15 10,14 9,14 9,13 8,13 8,12 9,12 9,11 10,11 10,10 11,10 11,9 12,9 12,8 13,8 13,7 14,7 14,6 15,6 15,5 16,5 16,4 17,4 17,3 18,3 18,2 19,2 19,0"/></svg>