<?xml version="1.0" encoding="utf-8"?>
<!-- Generator: Adobe Illustrator 26.3.1, SVG Export Plug-In . SVG Version: 6.00 Build 0)  -->
<svg version="1.1" id="Layer_1" xmlns="http://www.w3.org/2000/svg" xmlns:xlink="http://www.w3.org/1999/xlink" x="0px" y="0px"
	 viewBox="0 0 1305 711" style="enable-background:new 0 0 1305 711;" xml:space="preserve">
<style type="text/css">
	.st0{fill:#FFFFFF;}
</style>
<g id="Layer_2_00000120537928715097473620000012941779510023373963_">
	<g id="Layer">
		<g id="IDÔLE">
			<polygon id="E" class="st0" points="1296,360 1296,387 1287,387 1287,414 1278,414 1278,432 1269,432 1269,441 1260,441 
				1260,450 1152,450 1152,441 1134,441 1134,288 1206,288 1206,297 1215,297 1215,306 1224,306 1224,324 1233,324 1233,351 
				1242,351 1242,225 1233,225 1233,252 1224,252 1224,270 1215,270 1215,279 1134,279 1134,144 1152,144 1152,135 1251,135 
				1251,144 1260,144 1260,153 1269,153 1269,171 1278,171 1278,189 1287,189 1287,216 1296,216 1296,126 1062,126 1062,135 
				1080,135 1080,144 1098,144 1098,441 1080,441 1080,450 1062,450 1062,459 1305,459 1305,360 1296,360 			"/>
			<polygon id="L" class="st0" points="1044,360 1044,387 1035,387 1035,414 1026,414 1026,432 1017,432 1017,441 1008,441 
				1008,450 900,450 900,441 882,441 882,144 900,144 900,135 927,135 927,126 801,126 801,135 828,135 828,144 846,144 846,441 
				828,441 828,450 801,450 801,459 1053,459 1053,360 1044,360 			"/>
			<g id="Ô">
				<polygon class="st0" points="810,243 810,216 801,216 801,207 792,207 792,189 783,189 783,180 774,180 774,162 765,162 
					765,153 756,153 756,144 738,144 738,153 747,153 747,162 756,162 756,189 765,189 765,225 774,225 774,360 765,360 765,396 
					756,396 756,423 747,423 747,432 738,432 738,441 756,441 756,432 765,432 765,423 774,423 774,405 783,405 783,396 792,396 
					792,378 801,378 801,369 810,369 810,342 819,342 819,243 				"/>
				<rect x="720" y="135" class="st0" width="18" height="9"/>
				<rect x="702" y="126" class="st0" width="18" height="9"/>
				<rect x="702" y="450" class="st0" width="18" height="9"/>
				<rect x="720" y="441" class="st0" width="18" height="9"/>
				<polygon class="st0" points="567,432 567,423 558,423 558,396 549,396 549,360 540,360 540,225 549,225 549,189 558,189 
					558,162 567,162 567,153 576,153 576,144 558,144 558,153 549,153 549,162 540,162 540,180 531,180 531,189 522,189 522,207 
					513,207 513,216 504,216 504,243 495,243 495,342 504,342 504,369 513,369 513,378 522,378 522,396 531,396 531,405 540,405 
					540,423 549,423 549,432 558,432 558,441 576,441 576,432 				"/>
				<rect x="576" y="135" class="st0" width="18" height="9"/>
				<rect x="594" y="126" class="st0" width="18" height="9"/>
				<rect x="594" y="450" class="st0" width="18" height="9"/>
				<rect x="576" y="441" class="st0" width="18" height="9"/>
				<polygon class="st0" points="702,126 702,117 612,117 612,126 666,126 				"/>
				<polygon class="st0" points="612,459 612,468 702,468 702,459 648,459 				"/>
				<polygon class="st0" points="603,81 621,81 621,72 630,72 630,63 639,63 639,54 648,54 648,45 666,45 666,54 675,54 675,63 
					684,63 684,72 693,72 693,81 711,81 711,90 729,90 729,81 720,81 720,72 711,72 711,63 702,63 702,54 693,54 693,45 684,45 
					684,36 675,36 675,18 666,18 666,9 657,9 657,0 647.9,0 648,18 639,18 639,36 630,36 630,45 621,45 621,54 612,54 612,63 
					603,63 603,72 594,72 594,81 585,81 585,90 603,90 				"/>
			</g>
			<g id="D">
				<polygon class="st0" points="378,144 378,135 360,135 360,144 378,144 				"/>
				<polygon class="st0" points="396,153 396,144 378,144 378,153 396,153 				"/>
				<polygon class="st0" points="360,450 252,450 252,135 360,135 360,126 162,126 162,135 189,135 189,144 207,144 207,441 
					189,441 189,450 162,450 162,459 360,459 360,450 378,450 378,441 360,441 360,450 				"/>
				<polygon class="st0" points="378,441 396,441 396,432 378,432 378,441 				"/>
				<polygon class="st0" points="477,243 468,243 468,216 459,216 459,207 450,207 450,189 441,189 441,180 432,180 432,171 
					423,171 423,162 414,162 414,153 396,153 396,162 405,162 405,180 414,180 414,198 423,198 423,225 432,225 432,360 423,360 
					423,387 414,387 414,405 405,405 405,423 396,423 396,432 414,432 414,423 423,423 423,414 432,414 432,405 441,405 441,396 
					450,396 450,378 459,378 459,369 468,369 468,342 477,342 477,243 				"/>
			</g>
			<polygon id="I" class="st0" points="99,144 99,135 126,135 126,126 0,126 0,135 27,135 27,144 45,144 45,441 27,441 27,450 
				0,450 0,459 126,459 126,450 99,450 99,441 81,441 81,144 99,144 			"/>
		</g>
		<g id="LANCÔME">
			<polygon id="E-2" class="st0" points="1062,594 981,594 981,603 990,603 990,702 981,702 981,711 1071,711 1071,684 1062,684 
				1062,693 1053,693 1053,702 1008,702 1008,648 1044,648 1044,657 1053,657 1053,630 1044,630 1044,639 1008,639 1008,603 
				1062,603 1062,612 1071,612 1071,594 1062,594 			"/>
			<g id="M">
				<polygon class="st0" points="954,702 954,639 945,639 945,612 936,612 936,603 945,603 945,594 918,594 918,612 909,612 
					909,630 918,630 918,621 927,621 927,666 936,666 936,702 927,702 927,711 963,711 963,702 954,702 				"/>
				<polygon class="st0" points="882,657 882,639 873,639 873,621 864,621 864,603 855,603 855,594 828,594 828,603 837,603 
					837,639 828,639 828,702 819,702 819,711 846,711 846,702 837,702 837,657 846,657 846,630 855,630 855,648 864,648 864,666 
					873,666 873,684 882,684 882,693 891,693 891,675 900,675 900,657 882,657 				"/>
				<polygon class="st0" points="900,657 909,657 909,630 900,630 900,657 				"/>
			</g>
			<g id="Ô-2">
				<polygon class="st0" points="729,657 738,657 738,648 729,648 729,657 				"/>
				<polygon class="st0" points="747,657 756,657 756,648 747,648 747,657 				"/>
				<polygon class="st0" points="774,648 765,648 765,657 774,657 774,648 				"/>
				<polygon class="st0" points="774,594 729,594 729,603 774,603 774,594 				"/>
				<polygon class="st0" points="738,576 720,576 720,585 738,585 738,576 				"/>
				<polygon class="st0" points="783,585 783,576 765,576 765,585 783,585 				"/>
				<polygon class="st0" points="765,567 756,567 756,558 747,558 747,567 738,567 738,576 765,576 765,567 				"/>
				<polygon class="st0" points="810,630 801,630 801,612 792,612 792,603 774,603 774,612 783,612 783,639 792,639 792,666 
					783,666 783,693 774,693 774,702 792,702 792,693 801,693 801,675 810,675 810,630 				"/>
				<polygon class="st0" points="720,693 720,666 711,666 711,639 720,639 720,612 729,612 729,603 711,603 711,612 702,612 
					702,630 693,630 693,675 702,675 702,693 711,693 711,702 729,702 729,693 720,693 				"/>
				<polygon class="st0" points="729,711 774,711 774,702 729,702 729,711 				"/>
			</g>
			<g id="C">
				<polygon class="st0" points="684,621 684,594 675,594 675,603 666,603 666,612 675,612 675,621 684,621 				"/>
				<polygon class="st0" points="684,684 675,684 675,693 684,693 684,684 				"/>
				<polygon class="st0" points="675,693 666,693 666,702 675,702 675,693 				"/>
				<polygon class="st0" points="666,711 666,702 612,702 612,711 666,711 				"/>
				<polygon class="st0" points="594,612 585,612 585,630 576,630 576,675 585,675 585,693 594,693 594,702 612,702 612,693 
					603,693 603,666 594,666 594,639 603,639 603,612 612,612 612,603 594,603 594,612 				"/>
				<polygon class="st0" points="612,594 612,603 666,603 666,594 612,594 				"/>
			</g>
			<polygon id="N" class="st0" points="540,594 540,603 549,603 549,666 540,666 540,657 531,657 531,648 522,648 522,630 513,630 
				513,621 504,621 504,612 495,612 495,603 486,603 486,594 459,594 459,603 468,603 468,702 459,702 459,711 486,711 486,702 
				477,702 477,621 486,621 486,630 495,630 495,648 504,648 504,657 513,657 513,666 522,666 522,684 531,684 531,693 540,693 
				540,702 549,702 549,711 558,711 558,603 567,603 567,594 540,594 			"/>
			<g id="A">
				<polygon class="st0" points="441,693 441,675 432,675 432,657 423,657 423,639 414,639 414,621 405,621 405,603 396,603 
					396,594 387,594 387,612 378,612 378,630 396,630 396,657 369,657 369,648 360,648 360,666 351,666 351,684 342,684 342,702 
					333,702 333,711 360,711 360,702 351,702 351,693 360,693 360,675 369,675 369,666 405,666 405,675 414,675 414,693 423,693 
					423,702 414,702 414,711 450,711 450,693 441,693 				"/>
				<polygon class="st0" points="378,630 369,630 369,648 378,648 378,630 				"/>
			</g>
			<polygon id="L-2" class="st0" points="315,693 315,702 270,702 270,603 279,603 279,594 243,594 243,603 252,603 252,702 
				243,702 243,711 324,711 324,693 315,693 			"/>
		</g>
	</g>
</g>
</svg>
